# xmcd
#
# Track frame offsets: 
#        150
#        19947
#        36170
#        54352
#        72430
#        89730
#        109245
#        129137
#        145762
#        163630
#
# Disc length: 2480 seconds
#
# Revision: 7
# Processed by: cddbd v1.5.2PL0 Copyright (c) Steve Scherf et al.
# Submitted via: ExactAudioCopy v1.1
#
DISCID=8709ae0a
DTITLE=Tikaram, Tanita - Cappuccino Songs, The
DYEAR=1998
DGENRE=Pop
TTITLE0=Stop Listening
TTITLE1=Light Up My World
TTITLE2=Amore Si
TTITLE3=Back In Yours Arms
TTITLE4=The Cappuccino Song
TTITLE5=I Don't Wanna Lose At Love
TTITLE6=The Day Before You Came
TTITLE7=If I Ever
TTITLE8=I Like This
TTITLE9=I Knew You
EXTD=http://www.discogs.com/Tanita-Tikaram-The-Cappuccino-Songs/
EXTD=release/1102989\n\n\n\n Label .......: Mother Records\n Catalog# 
EXTD=: MUMCD 9801DJX\n Format ......: CD, Album, Promo\n Country .
EXTD=: Europe\n Released ....: 1998\n Genre .......: Electronic, R
EXTD=ock\n Style .......: Soft Rock, Synth-Pop\n Credits .....: Acoust
EXTD=ic Guitar - Mark Shulman, Rick Fenn, Tanita Tikaram\n            
EXTD=Backing Vocals - Andy Caine\n                Bass - Tony Levi
EXTD=ne\n                Bongos - Joao Bosco\n                Conducto
EXTD=r [Orchestra] - Gavin Wright\n                Congas - Robin Jone
EXTD=s\n                Drums, Percussion - Andy Duncan, Daniele De Gr
EXTD=egorio\n                Drums, Percussion, Bass, Voice - Luis Jar
EXTD=dim\n                Engineer [Assistant] - Jeremy Gill, John Mus
EXTD=grave, Richard Woodcroft,\n                                      
EXTD=Savvas Iossifidus\n                Guitar - Alessandro Cortini, 
EXTD=John Themis\n                Mastered by - Chris Blair, Ray Staff
EXTD=\n                Mixed by - Rafe McKenna\n                Piano 
EXTD=John Crawford\n                Piano, Keyboards, Arranged by [S
EXTD=trings], Programmed by - Marco Sabiu\n                Producer - 
EXTD=Charlie Mallozzi (tracks: 7), Marco Sabiu\n                String
EXTD=s - The London Session Orchestra\n                Timbales - Adam
EXTD=Riley\n                Written by - Benny Andersson (tracks: 7),
EXTD=Bjorn Ulvaeus (tracks: 7),\n                             Marco S
EXTD=abiu (tracks: 1 to 6, 8, 9),\n                             Tanita
EXTD=Tikaram (tracks: 1 to 6, 8 to 10),\n                            
EXTD=Varttina (tracks: 6]\n Notes .......: (P) and (C) 1998 Mother Reco
EXTD=rds\n\n                Made In Germany\n\n Barcode and Other Iden
EXTD=tifiers:\n\n                Barcode: 7 31453 72272 9\n           
EXTD=Other (Label Code): LC 0309\n                Other (Rights S
EXTD=ociety): biem - mcps\n                Matrix Number: 537 227-2 01
EXTD=+\n                Other [CD1 SID Code Mastering): IFPI L002\n
EXTD=      Other [CD1 SID Code Mould): IFPI 0109\n       
EXTD=Other (Manufacturer): PMCD
EXTT0=
EXTT1=
EXTT2=
EXTT3=
EXTT4=
EXTT5=
EXTT6=
EXTT7=
EXTT8=
EXTT9=
PLAYORDER=
